<svg width="589" height="421" viewBox="0 0 589 421" fill="none" xmlns="http://www.w3.org/2000/svg">
<rect width="589" height="421" fill="#FBFBFF"/>
<g id="Desktop - 3" clip-path="url(#clip0)">
<rect width="1920" height="3439" transform="translate(-1083 -203)" fill="#070707"/>
<g id="shape-group" filter="url(#filter0_b)">
<ellipse id="shape" rx="189.271" ry="129.728" transform="matrix(0.998506 0.0546405 0.0518904 0.998653 294.482 210.471)" stroke="url(#paint0_linear)" stroke-opacity="0.24" stroke-width="4"/>
<ellipse id="shape_2" rx="284.796" ry="195.202" transform="matrix(0.998506 0.0546405 0.0518904 0.998653 294.5 210.5)" stroke="url(#paint1_linear)" stroke-opacity="0.24" stroke-width="4"/>
<ellipse id="shape_3" rx="14.2398" ry="9.76007" transform="matrix(0.998506 0.0546405 0.0518904 0.998653 86.5092 61.8344)" fill="#F2994A"/>
<ellipse id="shape_4" rx="39.1595" ry="26.8402" transform="matrix(0.998506 0.0546405 0.0518904 0.998653 501.898 359.133)" fill="#18FBB7" fill-opacity="0.08"/>
<ellipse id="shape_5" rx="18.9864" ry="13.0134" transform="matrix(0.998506 0.0546405 0.0518904 0.998653 501.898 359.133)" fill="#F2994A" stroke="#F2994A" stroke-width="4"/>
</g>
<g id="Illustration" filter="url(#filter1_b)">
<path id="Vector" d="M255.945 240.794C246.628 243.048 236.317 245.481 229.09 247.173C228.938 232.918 244.426 220.669 258.829 212.892C257.279 221.345 256.287 230.61 255.945 240.794Z" fill="#F2C94C"/>
<path id="Vector_2" d="M317.055 218.167C322.931 227.748 325.622 241.597 312.148 254.609C307.118 251.803 299.979 247.841 293.547 244.192C302.819 234.794 310.579 226.145 317.055 218.167Z" fill="#F2994A"/>
<path id="Vector_3" opacity="0.2" d="M271.211 265.567C378.085 167.55 343.939 138.112 331.154 126.738C308.781 134.99 249.928 156.125 256.204 264.218L271.211 265.567Z" fill="url(#paint2_linear)"/>
<path id="Vector_4" opacity="0.1" d="M260.583 251.733C367.483 153.761 333.337 124.323 320.526 112.904C298.154 121.157 239.301 142.291 245.576 250.384L260.583 251.733Z" fill="url(#paint3_linear)"/>
<path id="Vector_5" opacity="0.15" d="M256.204 264.218C249.929 156.125 308.781 134.99 331.154 126.738L263.663 264.886L256.204 264.218Z" fill="url(#paint4_linear)"/>
<path id="Vector_6" opacity="0.1" d="M296.064 162.488C292.456 169.874 297.313 176.552 306.921 177.416C316.529 178.28 327.242 172.972 330.85 165.587C334.458 158.202 329.601 151.524 319.993 150.66C310.384 149.796 299.672 155.103 296.064 162.488Z" fill="white"/>
<path id="Vector_7" opacity="0.3" d="M240.135 186.729L116.201 175.657L98.5467 211.695L211.504 221.773L219.746 228.269L240.135 186.729Z" fill="url(#paint5_linear)"/>
<path id="Vector_8" d="M143.49 196.839L148.272 187.051L101.497 182.876L96.7158 192.663L143.49 196.839Z" fill="#F2C94C"/>
<path id="Vector_9" opacity="0.1" d="M203.958 192.637L176.81 190.231L175.262 193.4L202.397 195.831L203.958 192.637Z" fill="white"/>
<path id="Vector_10" opacity="0.1" d="M200.861 198.974L151.848 194.591L150.3 197.76L199.313 202.143L200.861 198.974Z" fill="white"/>
<path id="Vector_11" opacity="0.15" d="M197.765 205.312L134.372 199.664L132.824 202.833L196.217 208.481L197.765 205.312Z" fill="white"/>
<path id="Vector_12" d="M209.026 196.537C207.578 199.502 209.552 202.207 213.441 202.556C217.33 202.905 221.664 200.781 223.112 197.816C224.56 194.852 222.586 192.147 218.697 191.797C214.808 191.448 210.474 193.573 209.026 196.537Z" fill="#F2C94C"/>
<path id="Vector_13" opacity="0.3" d="M355.055 179.786L478.938 190.865L461.284 226.904L348.339 216.801L334.704 221.345L355.055 179.786Z" fill="url(#paint6_linear)"/>
<path id="Vector_14" d="M483.177 210.346L487.959 200.559L441.184 196.383L436.403 206.17L483.177 210.346Z" fill="#F2994A"/>
<path id="Vector_15" opacity="0.15" d="M382.617 191.416L409.753 193.847L408.205 197.016L381.069 194.584L382.617 191.416Z" fill="white"/>
<path id="Vector_16" opacity="0.15" d="M379.482 197.734L431.796 202.401L430.248 205.569L377.934 200.903L379.482 197.734Z" fill="white"/>
<path id="Vector_17" opacity="0.15" d="M376.386 204.072L439.78 209.719L438.232 212.888L374.838 207.241L376.386 204.072Z" fill="white"/>
<path id="Vector_18" d="M374.289 194.089C372.841 197.054 368.508 199.178 364.618 198.829C360.729 198.48 358.755 195.775 360.203 192.81C361.651 189.846 365.985 187.722 369.874 188.071C373.79 188.464 375.776 191.144 374.289 194.089Z" fill="#F2994A"/>
<path id="Vector_19" opacity="0.2" d="M350.135 225.053L424.135 231.673L413.623 253.19L339.623 246.57L350.135 225.053Z" fill="url(#paint7_linear)"/>
<path id="Vector_20" opacity="0.15" d="M402.665 235.143L377.308 232.884L376.047 235.465L401.404 237.724L402.665 235.143Z" fill="white"/>
<path id="Vector_21" opacity="0.15" d="M400.092 240.312L352.678 236.077L351.405 238.683L398.819 242.918L400.092 240.312Z" fill="white"/>
<path id="Vector_22" d="M405.568 237.511C404.707 239.274 405.876 240.89 408.205 241.11C410.533 241.329 413.113 240.057 413.987 238.268C414.848 236.505 413.679 234.889 411.351 234.67C409.01 234.476 406.43 235.748 405.568 237.511Z" fill="#F2994A"/>
<path id="Vector_23" opacity="0.2" d="M156.99 150.825L230.99 157.444L220.478 178.961L146.466 172.368L156.99 150.825Z" fill="url(#paint8_linear)"/>
<path id="Vector_24" opacity="0.15" d="M209.508 160.941L184.151 158.682L182.89 161.263L208.247 163.522L209.508 160.941Z" fill="white"/>
<path id="Vector_25" opacity="0.15" d="M206.973 166.128L159.559 161.893L158.286 164.5L205.7 168.735L206.973 166.128Z" fill="white"/>
<path id="Vector_26" d="M212.411 163.309C211.55 165.072 212.719 166.688 215.047 166.907C217.376 167.127 219.956 165.855 220.83 164.066C221.691 162.303 220.522 160.687 218.193 160.468C215.865 160.248 213.273 161.545 212.411 163.309Z" fill="#F2C94C"/>
<path id="Vector_27" d="M222.005 350.448C208.406 358.144 191.699 362.327 176.001 360.925C147.624 358.394 133.272 338.594 143.921 316.7C154.607 294.826 186.3 279.13 214.677 281.661C224.017 282.489 231.819 285.193 237.732 289.221C242.859 287.231 246.726 283.423 250.125 280.082C254.055 276.241 257.379 272.958 261.336 273.657C265.87 274.448 266.22 278.227 266.754 283.489C267.058 286.582 267.42 290.241 268.704 294.065C272.378 293.486 276.044 293.314 279.652 293.653C294.8 295.007 303.383 304.423 300.97 315.716C303.13 315.695 305.252 315.751 307.363 315.927C331.659 318.111 343.908 335.079 334.719 353.887C325.543 372.669 298.425 386.137 274.168 383.972C250.602 381.86 238.35 365.777 246.052 347.667C240.064 350.439 233.205 351.868 226.667 351.27C225.067 351.121 223.492 350.827 222.005 350.448Z" fill="url(#paint9_linear)"/>
</g>
</g>
<defs>
<filter id="filter0_b" x="-50" y="-50" width="689" height="521" filterUnits="userSpaceOnUse" color-interpolation-filters="sRGB">
<feFlood flood-opacity="0" result="BackgroundImageFix"/>
<feGaussianBlur in="BackgroundImage" stdDeviation="25"/>
<feComposite in2="SourceAlpha" operator="in" result="effect1_backgroundBlur"/>
<feBlend mode="normal" in="SourceGraphic" in2="effect1_backgroundBlur" result="shape"/>
</filter>
<filter id="filter1_b" x="-6" y="-10" width="546.268" height="516.398" filterUnits="userSpaceOnUse" color-interpolation-filters="sRGB">
<feFlood flood-opacity="0" result="BackgroundImageFix"/>
<feGaussianBlur in="BackgroundImage" stdDeviation="25"/>
<feComposite in2="SourceAlpha" operator="in" result="effect1_backgroundBlur"/>
<feBlend mode="normal" in="SourceGraphic" in2="effect1_backgroundBlur" result="shape"/>
</filter>
<linearGradient id="paint0_linear" x1="10" y1="-100" x2="10" y2="120" gradientUnits="userSpaceOnUse">
<stop stop-color="white"/>
<stop offset="0.35576" stop-color="white" stop-opacity="0"/>
<stop offset="0.710286" stop-color="white" stop-opacity="0"/>
<stop offset="1" stop-color="white"/>
</linearGradient>
<linearGradient id="paint1_linear" x1="10" y1="-190" x2="10" y2="160" gradientUnits="userSpaceOnUse">
<stop stop-color="white"/>
<stop offset="0.385265" stop-color="white" stop-opacity="0"/>
<stop offset="0.672451" stop-color="white" stop-opacity="0"/>
<stop offset="1" stop-color="white"/>
</linearGradient>
<linearGradient id="paint2_linear" x1="273.477" y1="103.887" x2="256.507" y2="293.854" gradientUnits="userSpaceOnUse">
<stop stop-color="white"/>
<stop offset="1" stop-color="white" stop-opacity="0"/>
</linearGradient>
<linearGradient id="paint3_linear" x1="262.852" y1="90.0566" x2="245.882" y2="280.024" gradientUnits="userSpaceOnUse">
<stop stop-color="white"/>
<stop offset="1" stop-color="white" stop-opacity="0"/>
</linearGradient>
<linearGradient id="paint4_linear" x1="281.168" y1="144.817" x2="265.715" y2="295.124" gradientUnits="userSpaceOnUse">
<stop stop-color="white" stop-opacity="0"/>
<stop offset="1" stop-color="white"/>
</linearGradient>
<linearGradient id="paint5_linear" x1="194.702" y1="165.979" x2="152.985" y2="236.214" gradientUnits="userSpaceOnUse">
<stop stop-color="white"/>
<stop offset="1" stop-color="white" stop-opacity="0"/>
</linearGradient>
<linearGradient id="paint6_linear" x1="384.859" y1="176.463" x2="400.202" y2="237.066" gradientUnits="userSpaceOnUse">
<stop stop-color="white"/>
<stop offset="1" stop-color="white" stop-opacity="0"/>
</linearGradient>
<linearGradient id="paint7_linear" x1="378.788" y1="227.602" x2="376.798" y2="249.886" gradientUnits="userSpaceOnUse">
<stop stop-color="white"/>
<stop offset="1" stop-color="white" stop-opacity="0"/>
</linearGradient>
<linearGradient id="paint8_linear" x1="185.648" y1="153.4" x2="183.658" y2="175.685" gradientUnits="userSpaceOnUse">
<stop stop-color="white"/>
<stop offset="1" stop-color="white" stop-opacity="0"/>
</linearGradient>
<linearGradient id="paint9_linear" x1="224.659" y1="292.555" x2="217.329" y2="380.606" gradientUnits="userSpaceOnUse">
<stop stop-color="#332f2f"/>
<stop offset="1" stop-color="#000000" stop-opacity="0"/>
</linearGradient>
<clipPath id="clip0">
<rect width="1920" height="3439" fill="white" transform="translate(-1083 -203)"/>
</clipPath>
</defs>
</svg>
